<svg width="36" height="37" viewBox="0 0 36 37" fill="none" xmlns="http://www.w3.org/2000/svg">
  <rect y="0.5" width="35.9999" height="35.9999" rx="17.9999" fill="#21BFE1" />
  <path
    d="M18.0023 20.7829L19.6366 19.1486L26.9965 26.5119L25.3657 28.1428L18.0023 20.7829ZM22.9086 14.2344L26.1771 10.9658C21.6629 6.45159 14.3487 6.44017 9.83444 10.943C14.3258 9.45727 19.3315 10.6573 22.9086 14.2344ZM9.80015 10.9773C5.29734 15.4915 5.30877 22.8057 9.82301 27.3199L13.0915 24.0514C9.51444 20.4743 8.31445 15.4686 9.80015 10.9773ZM9.82301 10.9544L9.81158 10.9658C9.3773 14.4058 11.1487 18.8286 14.7258 22.4171L21.2743 15.8686C17.6972 12.2915 13.263 10.5201 9.82301 10.9544Z"
    fill="white" />
</svg>