<svg width="28" height="29" viewBox="0 0 28 29" fill="none" xmlns="http://www.w3.org/2000/svg">
  <rect y="0.5" width="28" height="28" rx="14" fill="#21BFE1" />
  <path
    d="M14.0018 16.2756L15.2729 15.0045L20.9973 20.7316L19.7289 22L14.0018 16.2756ZM17.8178 11.1823L20.36 8.6401C16.8489 5.12901 11.1601 5.12013 7.64899 8.62232C11.1423 7.46677 15.0356 8.4001 17.8178 11.1823ZM7.62232 8.64899C4.12013 12.1601 4.12901 17.8489 7.6401 21.36L10.1823 18.8178C7.4001 16.0356 6.46678 12.1423 7.62232 8.64899ZM7.6401 8.63121L7.63121 8.6401C7.29344 11.3156 8.6712 14.7556 11.4534 17.5467L16.5467 12.4534C13.7645 9.6712 10.3156 8.29344 7.6401 8.63121Z"
    fill="white" />
</svg>
