<svg width="36" height="37" viewBox="0 0 36 37" fill="none" xmlns="http://www.w3.org/2000/svg">
  <rect y="0.5" width="35.9999" height="35.9999" rx="17.9999" fill="#F59B32" />
  <path
    d="M13.7142 19.9834V20.4285H22.2856V19.9834C22.2884 19.0011 22.6396 18.0543 23.272 17.3238C23.9044 16.5933 24.7738 16.1304 25.7142 16.0234V11.5274C25.7142 10.8192 25.4432 10.14 24.961 9.63923C24.4788 9.13845 23.8247 8.85712 23.1427 8.85712H12.8571C12.1751 8.85712 11.521 9.13845 11.0388 9.63923C10.5566 10.14 10.2856 10.8192 10.2856 11.5274V16.0234C11.226 16.1304 12.0954 16.5933 12.7278 17.3238C13.3602 18.0543 13.7114 19.0011 13.7142 19.9834Z"
    fill="white" />
  <path
    d="M26.1429 17.8571C25.5745 17.8571 25.0295 18.0748 24.6276 18.4623C24.2258 18.8498 24 19.3754 24 19.9234V21.9897H12.0001V19.9234C12.0001 19.3754 11.7743 18.8498 11.3724 18.4623C10.9706 18.0748 10.4255 17.8571 9.8572 17.8571C9.28889 17.8571 8.74384 18.0748 8.34198 18.4623C7.94012 18.8498 7.71436 19.3754 7.71436 19.9234L7.71436 26.9489C7.71436 27.1681 7.80466 27.3783 7.96541 27.5333C8.12615 27.6883 8.34417 27.7754 8.57149 27.7754H10.2858V28.6019C10.2858 28.8211 10.3761 29.0313 10.5368 29.1864C10.6976 29.3414 10.9156 29.4284 11.1429 29.4284C11.3702 29.4284 11.5883 29.3414 11.749 29.1864C11.9097 29.0313 12.0001 28.8211 12.0001 28.6019V27.7754H24V28.6019C24 28.8211 24.0903 29.0313 24.2511 29.1864C24.4118 29.3414 24.6298 29.4284 24.8571 29.4284C25.0845 29.4284 25.3025 29.3414 25.4632 29.1864C25.624 29.0313 25.7143 28.8211 25.7143 28.6019V27.7754H27.4286C27.6559 27.7754 27.8739 27.6883 28.0347 27.5333C28.1954 27.3783 28.2857 27.1681 28.2857 26.9489V19.9234C28.2857 19.652 28.2303 19.3833 28.1226 19.1326C28.0149 18.8819 27.8571 18.6541 27.6581 18.4623C27.4591 18.2704 27.2229 18.1182 26.9629 18.0143C26.7029 17.9105 26.4243 17.8571 26.1429 17.8571Z"
    fill="white" />
</svg>