<svg width="28" height="29" viewBox="0 0 28 29" fill="none" xmlns="http://www.w3.org/2000/svg">
  <rect y="0.5" width="28" height="28" rx="14" fill="#F59B32" />
  <path
    d="M10.6667 15.6538V16H17.3333V15.6538C17.3355 14.8898 17.6086 14.1534 18.1005 13.5852C18.5924 13.0171 19.2686 12.657 20 12.5738V9.07692C20 8.52609 19.7893 7.99782 19.4142 7.60832C19.0391 7.21882 18.5304 7 18 7H10C9.46957 7 8.96086 7.21882 8.58579 7.60832C8.21071 7.99782 8 8.52609 8 9.07692V12.5738C8.73136 12.657 9.40756 13.0171 9.89946 13.5852C10.3914 14.1534 10.6645 14.8898 10.6667 15.6538Z"
    fill="white" />
  <path
    d="M20.3333 14C19.8913 14 19.4674 14.1693 19.1548 14.4707C18.8423 14.7721 18.6667 15.1809 18.6667 15.6071V17.2143H9.33333V15.6071C9.33333 15.1809 9.15774 14.7721 8.84518 14.4707C8.53262 14.1693 8.10869 14 7.66667 14C7.22464 14 6.80072 14.1693 6.48816 14.4707C6.17559 14.7721 6 15.1809 6 15.6071V21.0714C6 21.2419 6.07024 21.4054 6.19526 21.526C6.32029 21.6466 6.48986 21.7143 6.66667 21.7143H8V22.3571C8 22.5276 8.07024 22.6912 8.19526 22.8117C8.32029 22.9323 8.48986 23 8.66667 23C8.84348 23 9.01305 22.9323 9.13807 22.8117C9.2631 22.6912 9.33333 22.5276 9.33333 22.3571V21.7143H18.6667V22.3571C18.6667 22.5276 18.7369 22.6912 18.8619 22.8117C18.987 22.9323 19.1565 23 19.3333 23C19.5101 23 19.6797 22.9323 19.8047 22.8117C19.9298 22.6912 20 22.5276 20 22.3571V21.7143H21.3333C21.5101 21.7143 21.6797 21.6466 21.8047 21.526C21.9298 21.4054 22 21.2419 22 21.0714V15.6071C22 15.3961 21.9569 15.1871 21.8731 14.9921C21.7894 14.7971 21.6666 14.62 21.5118 14.4707C21.3571 14.3215 21.1733 14.2031 20.9711 14.1223C20.7689 14.0416 20.5522 14 20.3333 14Z"
    fill="white" />
</svg>
