<svg width="57" height="56" viewBox="0 0 57 56" fill="none" xmlns="http://www.w3.org/2000/svg">
  <rect x="0.600098" width="56" height="56" rx="28" fill="#20C5A0" />
  <path
    d="M38.6601 40.6C39.6801 40.6 40.3601 39.936 40.3601 38.9401V24.0009C40.3601 23.503 40.1901 23.005 39.6801 22.673L29.4801 14.3735C28.8001 13.8755 27.9501 13.8755 27.2701 14.3735L17.0701 22.673C16.7301 23.005 16.5601 23.503 16.5601 24.0009V38.9401C16.5601 39.936 17.2401 40.6 18.2601 40.6H25.0601V35.7005C25.0601 33.8227 26.5823 32.3005 28.4601 32.3005V32.3005C30.3378 32.3005 31.8601 33.8227 31.8601 35.7005V40.6H38.6601Z"
    fill="white" />
</svg>
