<svg width="36" height="37" viewBox="0 0 36 37" fill="none" xmlns="http://www.w3.org/2000/svg">
    <rect y="0.5" width="36" height="36" rx="18" fill="#DD4F22" />
    <path
        d="M27.1436 25.6129H26.4737V19.3917H25.1337V25.6129H22.4538V19.3917H21.1139V25.6129H18.434V19.3917H17.094V25.6129H14.4141V19.3917H13.0742V25.6129H10.3943V19.3917H9.05431V25.6129H8.38433C8.20664 25.6129 8.03623 25.6785 7.91059 25.7951C7.78494 25.9118 7.71436 26.07 7.71436 26.235C7.71436 26.4 7.78494 26.5583 7.91059 26.6749C8.03623 26.7916 8.20664 26.8572 8.38433 26.8572H27.1436C27.3213 26.8572 27.4917 26.7916 27.6174 26.6749C27.743 26.5583 27.8136 26.4 27.8136 26.235C27.8136 26.07 27.743 25.9118 27.6174 25.7951C27.4917 25.6785 27.3213 25.6129 27.1436 25.6129Z"
        fill="white" />
    <path
        d="M8.38433 18.1474H27.1436C27.3213 18.1474 27.4917 18.0819 27.6174 17.9652C27.743 17.8486 27.8136 17.6903 27.8136 17.5253C27.8136 17.3603 27.743 17.2021 27.6174 17.0854C27.4917 16.9688 27.3213 16.9032 27.1436 16.9032H25.7695C25.6092 15.1466 24.7848 13.4992 23.4423 12.2526C22.0998 11.006 20.3257 10.2405 18.434 10.0916V8.19353C18.434 8.02853 18.3634 7.8703 18.2377 7.75363C18.1121 7.63696 17.9417 7.57141 17.764 7.57141C17.5863 7.57141 17.4159 7.63696 17.2902 7.75363C17.1646 7.8703 17.094 8.02853 17.094 8.19353V10.0916C15.2022 10.2405 13.4281 11.006 12.0857 12.2526C10.7432 13.4992 9.91881 15.1466 9.75845 16.9032H8.38433C8.20664 16.9032 8.03623 16.9688 7.91059 17.0854C7.78494 17.2021 7.71436 17.3603 7.71436 17.5253C7.71436 17.6903 7.78494 17.8486 7.91059 17.9652C8.03623 18.0819 8.20664 18.1474 8.38433 18.1474Z"
        fill="white" />
</svg>