<svg width="14" height="14" viewBox="0 0 14 14" fill="none" xmlns="http://www.w3.org/2000/svg">
  <g clip-path="url(#clip0_5613_43897)">
    <path fill-rule="evenodd" clip-rule="evenodd"
      d="M1.98335 6.66665C1.98335 4.08012 4.08015 1.98332 6.66668 1.98332C9.25322 1.98332 11.35 4.08012 11.35 6.66665C11.35 9.25319 9.25322 11.35 6.66668 11.35C4.08015 11.35 1.98335 9.25319 1.98335 6.66665ZM6.66668 0.683319C3.36218 0.683319 0.68335 3.36215 0.68335 6.66665C0.68335 9.97116 3.36218 12.65 6.66668 12.65C8.08478 12.65 9.38765 12.1566 10.413 11.3322L14.2072 15.1264C14.4611 15.3803 14.8726 15.3803 15.1265 15.1264C15.3803 14.8726 15.3803 14.461 15.1265 14.2072L11.3323 10.413C12.1567 9.38762 12.65 8.08475 12.65 6.66665C12.65 3.36215 9.97119 0.683319 6.66668 0.683319Z"
      fill="black" fill-opacity="0.478" />
  </g>
  <defs>
    <clipPath id="clip0_5613_43897">
      <rect width="16" height="16" fill="white" />
    </clipPath>
  </defs>
</svg>
