<svg width="32" height="32" viewBox="0 0 32 32" fill="none" xmlns="http://www.w3.org/2000/svg">
    <rect width="32" height="32" rx="16" fill="black" fill-opacity="0.09" />
    <path fill-rule="evenodd" clip-rule="evenodd"
        d="M11.866 10.944C11.474 10.555 10.8384 10.555 10.4464 10.9441C10.0543 11.3331 10.0543 11.9638 10.4464 12.3528L14.5843 16.4591L10.4394 20.6542C10.0513 21.0471 10.0575 21.6778 10.4533 22.0629C10.8492 22.4481 11.4847 22.4418 11.8729 22.0489L16.0039 17.8679L20.1302 21.9627C20.5222 22.3517 21.1578 22.3517 21.5498 21.9627C21.9419 21.5736 21.9419 20.9429 21.5498 20.5539L17.4095 16.4452L21.4594 12.3462C21.8476 11.9533 21.8414 11.3226 21.4455 10.9375C21.0497 10.5524 20.4141 10.5586 20.026 10.9515L15.9899 15.0365L11.866 10.944Z"
        fill="black" fill-opacity="0.5" />
</svg>