<svg width="36" height="37" viewBox="0 0 36 37" fill="none" xmlns="http://www.w3.org/2000/svg">
  <rect y="0.5" width="35.9999" height="35.9999" rx="17.9999" fill="black" />
  <path fill-rule="evenodd" clip-rule="evenodd"
    d="M8.60278 17.5146H22.7898L20.2107 11.4351C16.9352 11.3871 12.858 11.6025 12.3692 11.8825C11.6807 12.2871 9.28334 15.9981 8.60278 17.5146ZM8.61822 18.5146C9.78824 20.4079 15.6355 25.8043 17.788 26.8599L22.6731 18.5146H8.61822ZM18.9668 26.8257C21.1125 25.6997 26.8842 20.451 28.0858 18.5146H23.8318L18.9668 26.8257ZM28.1249 17.5146C27.4782 16.0367 25.1246 12.5252 24.341 11.8825C24.0565 11.6508 22.8524 11.5196 21.3086 11.4627L23.8761 17.5146H28.1249Z"
    fill="white" />
</svg>