<svg width="56" height="56" viewBox="0 0 56 56" fill="none" xmlns="http://www.w3.org/2000/svg">
  <rect width="56" height="56" rx="28" fill="#3478F6" />
  <g clip-path="url(#clip0_5613_43797)">
    <path
      d="M36.75 14.0001H19.25C17.325 14.0001 15.75 15.5751 15.75 17.5001V35.0001C15.75 36.0501 16.45 36.7501 17.5 36.7501H19.425L17.675 39.2001C17.15 40.0751 17.325 41.1251 18.2 41.6501C19.075 42.1751 20.125 42.0001 20.65 41.1251L23.625 36.7501H32.2L35.175 41.3001C35.7 42.1751 36.75 42.3501 37.625 41.8251C38.5 41.3001 38.675 40.2501 38.15 39.3751L36.4 36.9251H38.5C39.55 36.9251 40.25 36.2251 40.25 35.1751V17.5001C40.25 15.5751 38.675 14.0001 36.75 14.0001ZM21 33.2501C19.95 33.2501 19.25 32.5501 19.25 31.5001C19.25 30.4501 19.95 29.7501 21 29.7501C22.05 29.7501 22.75 30.4501 22.75 31.5001C22.75 32.5501 22.05 33.2501 21 33.2501ZM35 33.2501C33.95 33.2501 33.25 32.5501 33.25 31.5001C33.25 30.4501 33.95 29.7501 35 29.7501C36.05 29.7501 36.75 30.4501 36.75 31.5001C36.75 32.5501 36.05 33.2501 35 33.2501ZM36.75 26.2501H19.25V17.5001H36.75V26.2501Z"
      fill="white" />
  </g>
  <defs>
    <clipPath id="clip0_5613_43797">
      <rect width="28" height="28" fill="white" transform="translate(14 14.0001)" />
    </clipPath>
  </defs>
</svg>
