<svg viewBox="0 0 8 11" fill="none" xmlns="http://www.w3.org/2000/svg">
  <path
    fill-rule="evenodd"
    clip-rule="evenodd"
    d="M0.121352 0.744663C-2.85542e-07 0.907787 0 1.19998 0 1.78437V9.21563C0 9.80002 -2.85542e-07 10.0922 0.121352 10.2553C0.227105 10.3975 0.388983 10.4864 0.564992 10.4991C0.766962 10.5136 1.01119 10.3556 1.49965 10.0396L7.24303 6.32395C7.6669 6.04973 7.87883 5.91262 7.95203 5.73828C8.01599 5.58595 8.01599 5.41405 7.95203 5.26172C7.87883 5.08738 7.6669 4.95027 7.24303 4.67605L1.49966 0.960416C1.0112 0.644405 0.766963 0.4864 0.564992 0.500917C0.388983 0.513568 0.227105 0.602508 0.121352 0.744663Z"
    fill="black"
  />
</svg>
