<svg width="57" height="56" viewBox="0 0 57 56" fill="none" xmlns="http://www.w3.org/2000/svg">
  <rect x="0.800049" width="56" height="56" rx="28" fill="#F59B32" />
  <path fill-rule="evenodd" clip-rule="evenodd"
    d="M26.0005 43.3999C26.2682 43.3999 26.5287 43.3173 26.7424 43.1646C26.9561 43.0119 27.1115 42.7974 27.185 42.5536L28.5207 38.1261C28.8083 37.1726 29.3478 36.3042 30.0882 35.603C30.8287 34.9018 31.7457 34.3909 32.7527 34.1186L37.4283 32.8538C37.6855 32.784 37.9118 32.6368 38.0729 32.4345C38.234 32.2321 38.3211 31.9856 38.3211 31.7322C38.3211 31.4787 38.234 31.2322 38.0729 31.0299C37.9118 30.8275 37.6855 30.6803 37.4283 30.6105L32.7527 29.3457C31.7457 29.0734 30.8287 28.5625 30.0882 27.8613C29.3478 27.1601 28.8083 26.2917 28.5207 25.3382L27.185 20.9107C27.1113 20.6671 26.9559 20.4528 26.7422 20.3003C26.5285 20.1477 26.2681 20.0652 26.0005 20.0652C25.7329 20.0652 25.4726 20.1477 25.2589 20.3003C25.0452 20.4528 24.8897 20.6671 24.816 20.9107L23.4804 25.3382C23.1928 26.2917 22.6533 27.1601 21.9128 27.8613C21.1723 28.5625 20.2553 29.0734 19.2483 29.3457L14.5728 30.6105C14.3155 30.6803 14.0892 30.8275 13.9281 31.0299C13.7671 31.2322 13.6799 31.4787 13.6799 31.7322C13.6799 31.9856 13.7671 32.2321 13.9281 32.4345C14.0892 32.6368 14.3155 32.784 14.5728 32.8538L19.2483 34.1186C20.2553 34.3909 21.1723 34.9018 21.9128 35.603C22.6533 36.3042 23.1928 37.1726 23.4804 38.1261L24.816 42.5536C24.8895 42.7974 25.0449 43.0119 25.2586 43.1646C25.4724 43.3173 25.7328 43.3999 26.0005 43.3999ZM38.322 27.0651C38.5808 27.0652 38.833 26.9882 39.043 26.8449C39.2529 26.7017 39.4099 26.4995 39.4917 26.267L40.139 24.4266C40.3854 23.7312 40.9604 23.1836 41.6964 22.9518L43.6399 22.3373C43.8847 22.2595 44.0974 22.1108 44.2481 21.9124C44.3989 21.7139 44.4799 21.4756 44.4799 21.2312C44.4799 20.9867 44.3989 20.7484 44.2481 20.55C44.0974 20.3515 43.8847 20.2029 43.6399 20.1251L41.6964 19.5106C40.9621 19.2772 40.3838 18.7327 40.139 18.0358L39.4901 16.1954C39.4079 15.9636 39.251 15.7622 39.0414 15.6194C38.8318 15.4767 38.5801 15.3999 38.322 15.3999C38.0638 15.3999 37.8122 15.4767 37.6026 15.6194C37.393 15.7622 37.2361 15.9636 37.1539 16.1954L36.505 18.0358C36.384 18.3791 36.1803 18.6911 35.91 18.9471C35.6396 19.2031 35.3102 19.396 34.9476 19.5106L33.004 20.1251C32.7593 20.2029 32.5466 20.3515 32.3959 20.55C32.2451 20.7484 32.1641 20.9867 32.1641 21.2312C32.1641 21.4756 32.2451 21.7139 32.3959 21.9124C32.5466 22.1108 32.7593 22.2595 33.004 22.3373L34.9476 22.9518C35.6819 23.1851 36.2602 23.7296 36.505 24.4266L37.1539 26.267C37.2356 26.4992 37.3923 26.7012 37.602 26.8445C37.8116 26.9877 38.0635 27.0649 38.322 27.0651Z"
    fill="white" />
</svg>
