<svg width="28" height="28" viewBox="0 0 28 28" fill="none" xmlns="http://www.w3.org/2000/svg">
<path fill-rule="evenodd" clip-rule="evenodd" d="M13.406 1.53525C13.7954 1.43275 14.2047 1.43275 14.594 1.53525C15.0458 1.65417 15.4291 1.94433 15.7349 2.17576L15.82 2.24004L16.5279 2.77096C16.6171 2.83717 16.7074 2.90509 16.7992 2.97419L16.94 3.08004L26.3667 10.15C26.8822 10.5366 26.9866 11.2679 26.6 11.7834C26.2134 12.2988 25.4822 12.4033 24.9667 12.0167L24.5 11.6667V20.8117C24.5001 21.4267 24.5001 21.9572 24.4644 22.3942C24.4267 22.8555 24.3435 23.3142 24.1186 23.7557C23.783 24.4142 23.2476 24.9497 22.589 25.2852C22.1476 25.5102 21.6888 25.5934 21.2276 25.631C20.7906 25.6667 20.26 25.6667 19.645 25.6667H8.35504C7.74004 25.6667 7.20949 25.6667 6.7725 25.631C6.31126 25.5934 5.85251 25.5102 5.41107 25.2852C4.7525 24.9497 4.21707 24.4142 3.88151 23.7557C3.65658 23.3142 3.57338 22.8555 3.5357 22.3942C3.49999 21.9572 3.50001 21.4267 3.50003 20.8117L3.50003 11.6667L3.03336 12.0167C2.5179 12.4033 1.78663 12.2988 1.40003 11.7834C1.01343 11.2679 1.1179 10.5366 1.63336 10.15L11.06 3.08004L11.2008 2.97423C11.2926 2.90513 11.3829 2.83722 11.4721 2.77103L12.18 2.24004L12.2652 2.17576C12.571 1.94433 12.9543 1.65417 13.406 1.53525ZM10.5 15.8667V23.3334H17.5V15.8667C17.5 15.2133 17.5 14.8866 17.3729 14.6371C17.261 14.4175 17.0825 14.2391 16.863 14.1272C16.6135 14 16.2868 14 15.6334 14H12.3667C11.7133 14 11.3866 14 11.137 14.1272C10.9175 14.2391 10.739 14.4175 10.6272 14.6371C10.5 14.8866 10.5 15.2133 10.5 15.8667Z" fill="#3B82F6"/>
</svg>
