<svg width="18" height="22" viewBox="0 0 18 22" fill="none" xmlns="http://www.w3.org/2000/svg">
<g clip-path="url(#clip0_10_32)">
<path fill-rule="evenodd" clip-rule="evenodd" d="M0 9C0 4.02944 4.02944 0 9 0C13.9706 0 18 4.02944 18 9C18 11.5262 16.8532 13.7402 15.2923 15.767C13.988 17.4606 12.3183 19.1158 10.6506 20.769L10.6495 20.7702C10.3345 21.0825 10.0195 21.3947 9.70711 21.7071C9.31658 22.0976 8.68342 22.0976 8.29289 21.7071C7.98026 21.3945 7.6644 21.0813 7.34916 20.7688C5.68146 19.1156 4.01205 17.4606 2.70772 15.767C1.14683 13.7402 0 11.5262 0 9ZM12 9C12 10.6569 10.6569 12 9 12C7.34315 12 6 10.6569 6 9C6 7.34315 7.34315 6 9 6C10.6569 6 12 7.34315 12 9Z" fill="#3B82F6"/>
</g>
<defs>
<clipPath id="clip0_10_32">
<rect width="18" height="22" fill="white"/>
</clipPath>
</defs>
</svg>
