<svg width="48" height="48" viewBox="0 0 48 48" fill="none" xmlns="http://www.w3.org/2000/svg">
  <rect width="48" height="48" rx="12" fill="#EDEDED" />
  <path
    d="M24.6714 13.9174L27.4704 19.5874L33.729 20.4982C33.8672 20.5182 33.9971 20.5764 34.1039 20.6664C34.2108 20.7563 34.2903 20.8744 34.3335 21.0072C34.3767 21.1401 34.3818 21.2823 34.3483 21.4179C34.3148 21.5535 34.244 21.677 34.1439 21.7744L29.6142 26.1844L30.6834 32.4178C30.707 32.5555 30.6915 32.6971 30.6389 32.8264C30.5863 32.9558 30.4985 33.0679 30.3855 33.15C30.2725 33.2321 30.1387 33.281 29.9994 33.2911C29.8601 33.3012 29.7207 33.2721 29.5971 33.2071L24 30.2686L18.402 33.2098C18.2782 33.2745 18.1388 33.3033 17.9996 33.2931C17.8603 33.2828 17.7267 33.2338 17.6137 33.1517C17.5008 33.0695 17.4131 32.9575 17.3604 32.8281C17.3077 32.6988 17.2922 32.5573 17.3157 32.4196L18.3849 26.1898L13.8552 21.7798C13.7551 21.6824 13.6843 21.5589 13.6508 21.4233C13.6172 21.2877 13.6224 21.1455 13.6656 21.0126C13.7087 20.8798 13.7882 20.7617 13.8951 20.6718C14.0019 20.5818 14.1318 20.5236 14.2701 20.5036L20.5287 19.5883L23.3277 13.9183C23.3896 13.7931 23.4853 13.6876 23.6039 13.6139C23.7226 13.5401 23.8595 13.5009 23.9992 13.5009C24.139 13.5008 24.2759 13.5397 24.3947 13.6133C24.5135 13.6869 24.6093 13.7923 24.6714 13.9174Z"
    fill="#C7C7C7" />
</svg>
