<svg width="28" height="29" viewBox="0 0 28 29" fill="none" xmlns="http://www.w3.org/2000/svg">
  <rect y="0.5" width="28" height="28" rx="14" fill="black" />
  <path fill-rule="evenodd" clip-rule="evenodd"
    d="M6.74243 13.6225H17.5578L15.5982 9.0035C13.0723 8.97305 9.99465 9.13871 9.62046 9.35306C9.10108 9.65827 7.33149 12.3825 6.74243 13.6225ZM6.77504 14.6225C7.80987 16.1537 12.0316 20.0448 13.7362 20.9515L17.441 14.6225H6.77504ZM14.9436 20.8684C16.6966 19.8342 20.739 16.15 21.7724 14.6225H18.5997L14.9436 20.8684ZM21.8245 13.6225C21.2599 12.4172 19.5225 9.83745 18.9319 9.35306C18.7182 9.17901 17.8377 9.0779 16.6963 9.03133L18.6441 13.6225H21.8245Z"
    fill="white" />
</svg>
