<svg width="18" height="18" viewBox="0 0 18 18" fill="none" xmlns="http://www.w3.org/2000/svg">
<g clip-path="url(#clip0_10_34)">
<path d="M12.7071 0.292893C12.3166 -0.097631 11.6834 -0.097631 11.2929 0.292893C10.9024 0.683417 10.9024 1.31658 11.2929 1.70711L14.5858 5H10.5556C8.91304 4.99999 7.61909 4.99999 6.57778 5.08507C5.51543 5.17186 4.62827 5.35217 3.82207 5.76295C2.50493 6.43407 1.43407 7.50493 0.762955 8.82207C0.352174 9.62827 0.171865 10.5154 0.0850668 11.5778C-1.13994e-05 12.6191 -6.32811e-06 13.913 1.11743e-07 15.5556V17C1.11743e-07 17.5523 0.447716 18 1 18C1.55229 18 2 17.5523 2 17V15.6C2 13.9033 2.00078 12.691 2.07842 11.7406C2.15512 10.802 2.30179 10.2073 2.54497 9.73005C3.02433 8.78924 3.78924 8.02433 4.73005 7.54497C5.20732 7.30179 5.80197 7.15512 6.74064 7.07842C7.69099 7.00078 8.90334 7 10.6 7H14.5858L11.2929 10.2929C10.9024 10.6834 10.9024 11.3166 11.2929 11.7071C11.6834 12.0976 12.3166 12.0976 12.7071 11.7071L17.7071 6.70711C18.0976 6.31658 18.0976 5.68342 17.7071 5.29289L12.7071 0.292893Z" fill="white"/>
</g>
<defs>
<clipPath id="clip0_10_34">
<rect width="18" height="18" fill="white"/>
</clipPath>
</defs>
</svg>
