<svg width="19" height="22" viewBox="0 0 19 22" fill="none" xmlns="http://www.w3.org/2000/svg">
<path d="M5.00202 0C4.44973 0 4.00202 0.447715 4.00202 1C4.00202 1.55228 4.44973 2 5.00202 2H8.00202V3H5.76072C4.95576 2.99999 4.29138 2.99998 3.75019 3.0442C3.1881 3.09012 2.67139 3.18868 2.18606 3.43598C1.43341 3.81947 0.821486 4.43139 0.437992 5.18404C0.190701 5.66938 0.092137 6.18608 0.0462118 6.74818C0.0284889 6.96509 0.017328 7.18248 0.0104137 7.40011C-0.00680929 7.9422 -0.0154208 8.21324 0.09098 8.43407C0.182647 8.62432 0.342159 8.78898 0.529399 8.88664C0.746736 9 1.03183 9 1.60202 9H16.402C16.9722 9 17.2573 9 17.4746 8.88664C17.6619 8.78898 17.8214 8.62432 17.9131 8.43407C18.0195 8.21325 18.0108 7.9422 17.9936 7.40011C17.9867 7.18248 17.9755 6.96509 17.9578 6.74818C17.9119 6.18608 17.8133 5.66938 17.566 5.18404C17.1825 4.43139 16.5706 3.81947 15.818 3.43598C15.3326 3.18868 14.8159 3.09012 14.2538 3.0442C13.7127 2.99998 13.0483 2.99999 12.2433 3H10.002V2H13.002C13.5543 2 14.002 1.55228 14.002 1C14.002 0.447715 13.5543 0 13.002 0H5.00202Z" fill="#3B82F6"/>
<path d="M6.50202 20C5.94973 20 5.50202 20.4477 5.50202 21C5.50202 21.5523 5.94973 22 6.50202 22H11.502C12.0543 22 12.502 21.5523 12.502 21C12.502 20.4477 12.0543 20 11.502 20H6.50202Z" fill="#3B82F6"/>
<path fill-rule="evenodd" clip-rule="evenodd" d="M13.3808 18.9939C13.0376 19 12.6592 19 12.2434 19H5.7607C5.34482 19 4.9664 19 4.62318 18.9939L3.39642 21.4474C3.14943 21.9414 2.54876 22.1416 2.05478 21.8946C1.5608 21.6477 1.36058 21.047 1.60756 20.553L2.52767 18.7128C2.41201 18.6704 2.29819 18.6212 2.18606 18.564C1.43341 18.1805 0.821486 17.5686 0.437992 16.816C0.190701 16.3306 0.092137 15.8139 0.0462118 15.2518C0.00199531 14.7106 0.00200496 14.0463 0.00201666 13.2413V12.6C0.00201666 12.0399 0.00201666 11.7599 0.11101 11.546C0.206884 11.3578 0.359864 11.2049 0.548026 11.109C0.761938 11 1.04196 11 1.60202 11H16.402C16.9621 11 17.2421 11 17.456 11.109C17.6442 11.2049 17.7971 11.3578 17.893 11.546C18.002 11.7599 18.002 12.0399 18.002 12.6V13.2413C18.002 14.0463 18.002 14.7106 17.9578 15.2518C17.9119 15.8139 17.8133 16.3306 17.566 16.816C17.1825 17.5686 16.5706 18.1805 15.818 18.564C15.7058 18.6212 15.592 18.6704 15.4763 18.7128L16.3964 20.553C16.6434 21.047 16.4432 21.6477 15.9492 21.8946C15.4552 22.1416 14.8546 21.9414 14.6076 21.4474L13.3808 18.9939ZM5.50202 13C4.67359 13 4.00202 13.6716 4.00202 14.5C4.00202 15.3284 4.67359 16 5.50202 16C6.33044 16 7.00202 15.3284 7.00202 14.5C7.00202 13.6716 6.33044 13 5.50202 13ZM12.502 13C11.6736 13 11.002 13.6716 11.002 14.5C11.002 15.3284 11.6736 16 12.502 16C13.3304 16 14.002 15.3284 14.002 14.5C14.002 13.6716 13.3304 13 12.502 13Z" fill="#3B82F6"/>
</svg>
